<?xml version="1.0" encoding="utf-8"?>
<!-- Generator: Adobe Illustrator 18.0.0, SVG Export Plug-In . SVG Version: 6.00 Build 0)  -->
<!DOCTYPE svg PUBLIC "-//W3C//DTD SVG 1.1//EN" "http://www.w3.org/Graphics/SVG/1.1/DTD/svg11.dtd">
<svg version="1.1" xmlns="http://www.w3.org/2000/svg" xmlns:xlink="http://www.w3.org/1999/xlink" x="0px" y="0px"
	 viewBox="0 0 792 612" enable-background="new 0 0 792 612" xml:space="preserve">
<g id="Layer_4" display="none">
	
		<path display="inline" fill="none" stroke="#000000" stroke-width="2.8346" stroke-linecap="round" stroke-linejoin="round" stroke-miterlimit="10" d="
		M338.7,379.7c0,0,0.3,2.4,0.7,5.8c0.8,7.6,2,20.1,1.3,22.2"/>
	
		<path display="inline" fill="none" stroke="#000000" stroke-width="2.8346" stroke-linecap="round" stroke-linejoin="round" stroke-miterlimit="10" d="
		M200.2,424.8c27-24,90.4-21.1,100.4-25.1s14-2,14-2l12-14l12.7,1.8"/>
	
		<path display="inline" fill="none" stroke="#000000" stroke-width="2.8346" stroke-linecap="round" stroke-linejoin="round" stroke-miterlimit="10" d="
		M472.5,371c0,0-0.4,7.6-0.8,11c-0.8,7.6-0.1,21.1,0.6,23.2"/>
	
		<path display="inline" fill="none" stroke="#000000" stroke-width="2.8346" stroke-linecap="round" stroke-linejoin="round" stroke-miterlimit="10" d="
		M594.5,424c-32.5-24-70.2-24.2-80.2-28.2s-16.5-3-16.5-3l-10-9.2l-16.3,1.5"/>
	
		<path display="inline" fill="none" stroke="#000000" stroke-width="2.8346" stroke-linecap="round" stroke-linejoin="round" stroke-miterlimit="10" d="
		M497.8,392.8c11.8,28.8-71.5,136.5-71.5,136.5h-28c0,0-81.9-90.9-83.6-131.6"/>
	
		<path display="inline" fill="none" stroke="#000000" stroke-width="2.8346" stroke-linecap="round" stroke-linejoin="round" stroke-miterlimit="10" d="
		M300.2,400.7c1.1,39.8,81.3,129.8,81.3,129.8l30.5-1h2.5l28-0.5c0,0,83-104,71.2-132.8"/>
	
		<path display="inline" fill="none" stroke="#000000" stroke-width="2.8346" stroke-linecap="round" stroke-linejoin="round" stroke-miterlimit="10" d="
		M326.7,383.7C328,430,386.8,487.8,394,495c5,0,33.5-0.8,33.5-0.8s60.2-72.9,60.2-110.8"/>
</g>
<g id="Layer_1">
	<g>
		
			<path fill="none" stroke="#000000" stroke-width="1.4173" stroke-linecap="round" stroke-linejoin="round" stroke-miterlimit="10" d="
			M266.3,198.3c3.9,1,2.5,21.5-4.5,40.5c-6.4,17.3-0.5,29.5-5,41.5c-5.3,14.2-31.5,62-73.5,67s-84.5-51.7-89-73.7
			c-1.6-8,1.9-20-3.5-26.8c-7.8-10-10-31.3-10-31.3s-0.5-3.2,0.3-6.8"/>
		
			<path fill="none" stroke="#000000" stroke-width="1.4173" stroke-linecap="round" stroke-linejoin="round" stroke-miterlimit="10" d="
			M165.5,212.5c0,12.6-10.7,24.1-26.2,24.5c-21.9,0.6-27.9-12.4-27.8-25c0.2-12.6,12.2-19.8,27.8-20.5c13.4-0.6,20.2,2.4,23.5,7.9
			c0.1,0.1,0.1,0.2,0.2,0.3c0.6,1,1,2,1.4,3.2C165.2,205.6,165.5,208.9,165.5,212.5z"/>
		
			<path fill="none" stroke="#000000" stroke-width="1.4173" stroke-linecap="round" stroke-linejoin="round" stroke-miterlimit="10" d="
			M183,211.8c1.5,12.5,13.5,22.6,29,21.1c21.8-2.1,26.2-15.7,24.5-28.2c-1.7-12.4-14.5-18.2-30-17c-16.1,1.2-22.1,6.5-23.5,14.5
			C182.5,205.1,182.6,208.3,183,211.8z"/>
		
			<path fill="none" stroke="#000000" stroke-width="1.4173" stroke-linecap="round" stroke-linejoin="round" stroke-miterlimit="10" d="
			M164,201.6c2.2-1.8,17.4-3.2,19-0.4"/>
		
			<path fill="none" stroke="#000000" stroke-width="1.4173" stroke-linecap="round" stroke-linejoin="round" stroke-miterlimit="10" d="
			M112.7,204.7c-4.3,0.3-6.3,0.7-6.3,0.7l-13.3-4"/>
		
			<polyline fill="none" stroke="#000000" stroke-width="1.4173" stroke-linecap="round" stroke-linejoin="round" stroke-miterlimit="10" points="
			234.3,196.3 241.3,196.7 254.7,192.7 		"/>
		<path stroke="#000000" stroke-width="1.4173" stroke-miterlimit="10" d="M221.1,296.9c0.2-3.6,0.1-7.5-0.1-11.6
			c-2.3-37.6-13-35.3-43.7-34.7c-32.3,0.7-43.7-3.7-43.7,44.8c0,1.3,0.1,2.6,0.2,4c-20-13-36-37.2-40-41.2
			c-7.8,22.5,40.1,89.9,82.2,89.1c48.3-1,90.4-63.3,81.7-90.1C257.7,256.7,239.6,285.6,221.1,296.9z M177.1,262.4
			c22.1-0.6,29.8-2.5,31.4,29.4c0.2,4.4,0.2,8.4,0,12c-10.9,5.2-22.6,8.8-34.1,8.8c-10.2,0-19.7-2.6-28.3-6.5
			c-0.2-1.9-0.3-3.8-0.3-5.7C145.7,259.3,153.8,263,177.1,262.4z"/>
		<path stroke="#000000" stroke-width="1.4173" stroke-linecap="round" stroke-linejoin="round" stroke-miterlimit="10" d="
			M267.2,198.5C256.8,196.3,256,219,256,219s1-20.5-7.2-46.8c0-37.5-29.3-48.2-37.8-51.2s-30.5,0.7-67.5,0.5
			c-37-0.2-44.7,44.2-41.7,54.3c-7.5,3.5-6.2,53.7-6.2,53.7s-3.7-15.2-4.3-17.7c-2-7.2-7.6-6-9.5-3c0,0-5.9-31.4-1.9-37.7
			c-2.3,1.5-5.5-0.5-5.5-0.5l5.5-6.5l-4-2l5-5l-2.5-7l-5.5,3l20.5-22L81,133.8l11.5-8.2l-11-2l14.5-4.5l-8.5-12l6,1l-1.5-7l4-1
			l-7.3-4.7l8.8-5.8l11.5,2.5l-2-8.5l9.5-0.5l2-5l6.5,2l6.5-5l5,2l5-4l2,3.5l5-7l4.5,6.5l2.5-4.5l5.5,4l8.5-7.5l2.5,7l6.5-4.5
			l0.7,3.8l5.8-6.8l3.5,6.5l6.5-8l1,6.5l9.5-1.5l-3,8h9.8l-3.8,7l9.8-7.3l-1.8,7.3l13.5-9.5l-3,9.5l15-7.7l-7.3,17.7l17.3,2
			l-6.5,6.5l14.5,1l-8,4.5l15.5,2l-7.5,3l2.5,7.5l-7.5,2l17,13.5l-5.5,3.5l6,5.5l-4.5,3.5l8.7,7.5l-3.2,2l2.5,10l-5-1.5
			C271,168.7,272.2,190.3,267.2,198.5z"/>
	</g>
</g>
</svg>
